<svg class="animated" id="freepik_stories-online-gallery" xmlns="http://www.w3.org/2000/svg" viewBox="0 0 500 500" version="1.1" xmlns:xlink="http://www.w3.org/1999/xlink" xmlns:svgjs="http://svgjs.com/svgjs"><style>svg#freepik_stories-online-gallery:not(.animated) .animable {opacity: 0;}svg#freepik_stories-online-gallery.animated #el22gl3yq2ye1 {animation: 1s 1 forwards cubic-bezier(.36,-0.01,.5,1.38) lightSpeedRight;animation-delay: 0s;}svg#freepik_stories-online-gallery.animated #el5lgjlfv1gtj {animation: 1s 1 forwards cubic-bezier(.36,-0.01,.5,1.38) lightSpeedRight;animation-delay: 0.014285714285714285s;opacity: 0}svg#freepik_stories-online-gallery.animated #eley3mpzf26vd {animation: 1s 1 forwards cubic-bezier(.36,-0.01,.5,1.38) lightSpeedRight;animation-delay: 0.02857142857142857s;opacity: 0}svg#freepik_stories-online-gallery.animated #elex4bhyrkmws {animation: 1s 1 forwards cubic-bezier(.36,-0.01,.5,1.38) lightSpeedRight;animation-delay: 0.04285714285714286s;opacity: 0}svg#freepik_stories-online-gallery.animated #el4g3phte2nir {animation: 1s 1 forwards cubic-bezier(.36,-0.01,.5,1.38) lightSpeedRight;animation-delay: 0.05714285714285714s;opacity: 0}svg#freepik_stories-online-gallery.animated #elk99pbuehwti {animation: 1s 1 forwards cubic-bezier(.36,-0.01,.5,1.38) lightSpeedRight;animation-delay: 0.07142857142857142s;opacity: 0}svg#freepik_stories-online-gallery.animated #elehe1wvql32k {animation: 1s 1 forwards cubic-bezier(.36,-0.01,.5,1.38) lightSpeedRight;animation-delay: 0.08571428571428572s;opacity: 0}svg#freepik_stories-online-gallery.animated #elj9mho8rxv6q {animation: 1s 1 forwards cubic-bezier(.36,-0.01,.5,1.38) lightSpeedRight;animation-delay: 0.09999999999999999s;opacity: 0}svg#freepik_stories-online-gallery.animated #elklgiw85osfn {animation: 1s 1 forwards cubic-bezier(.36,-0.01,.5,1.38) lightSpeedRight;animation-delay: 0.11428571428571428s;opacity: 0}svg#freepik_stories-online-gallery.animated #elgt08n25c2kd {animation: 1s 1 forwards cubic-bezier(.36,-0.01,.5,1.38) lightSpeedRight;animation-delay: 0.12857142857142856s;opacity: 0}svg#freepik_stories-online-gallery.animated #eltpjo890suno {animation: 1s 1 forwards cubic-bezier(.36,-0.01,.5,1.38) lightSpeedRight;animation-delay: 0.14285714285714285s;opacity: 0}svg#freepik_stories-online-gallery.animated #elf4cd1l6qrr {animation: 1s 1 forwards cubic-bezier(.36,-0.01,.5,1.38) lightSpeedRight;animation-delay: 0.15714285714285714s;opacity: 0}svg#freepik_stories-online-gallery.animated #eln7leqgdhxl {animation: 1s 1 forwards cubic-bezier(.36,-0.01,.5,1.38) lightSpeedRight;animation-delay: 0.17142857142857143s;opacity: 0}svg#freepik_stories-online-gallery.animated #elu6pp00kqyct {animation: 1s 1 forwards cubic-bezier(.36,-0.01,.5,1.38) lightSpeedRight;animation-delay: 0.18571428571428572s;opacity: 0}svg#freepik_stories-online-gallery.animated #elswod6bdtv2b {animation: 1s 1 forwards cubic-bezier(.36,-0.01,.5,1.38) lightSpeedRight;animation-delay: 0.19999999999999998s;opacity: 0}svg#freepik_stories-online-gallery.animated #elkjlhzwoc85l {animation: 1s 1 forwards cubic-bezier(.36,-0.01,.5,1.38) lightSpeedRight;animation-delay: 0.21428571428571427s;opacity: 0}svg#freepik_stories-online-gallery.animated #elblnpwwkxlk {animation: 1s 1 forwards cubic-bezier(.36,-0.01,.5,1.38) lightSpeedRight;animation-delay: 0.22857142857142856s;opacity: 0}svg#freepik_stories-online-gallery.animated #el49kauc8lp8b {animation: 1s 1 forwards cubic-bezier(.36,-0.01,.5,1.38) lightSpeedRight;animation-delay: 0.24285714285714285s;opacity: 0}svg#freepik_stories-online-gallery.animated #elta28wcmsr67 {animation: 1s 1 forwards cubic-bezier(.36,-0.01,.5,1.38) lightSpeedRight;animation-delay: 0.2571428571428571s;opacity: 0}svg#freepik_stories-online-gallery.animated #elypfcl4hgq9n {animation: 1s 1 forwards cubic-bezier(.36,-0.01,.5,1.38) lightSpeedRight;animation-delay: 0.2714285714285714s;opacity: 0}svg#freepik_stories-online-gallery.animated #elih5tm59vt5g {animation: 1s 1 forwards cubic-bezier(.36,-0.01,.5,1.38) lightSpeedRight;animation-delay: 0.2857142857142857s;opacity: 0}svg#freepik_stories-online-gallery.animated #elpt0wqfnl7vq {animation: 1s 1 forwards cubic-bezier(.36,-0.01,.5,1.38) lightSpeedRight;animation-delay: 0.3s;opacity: 0}svg#freepik_stories-online-gallery.animated #el5dzlz2f6o8e {animation: 1s 1 forwards cubic-bezier(.36,-0.01,.5,1.38) lightSpeedRight;animation-delay: 0.3142857142857143s;opacity: 0}svg#freepik_stories-online-gallery.animated #el03s6fy2xsaq {animation: 1s 1 forwards cubic-bezier(.36,-0.01,.5,1.38) lightSpeedRight;animation-delay: 0.32857142857142857s;opacity: 0}svg#freepik_stories-online-gallery.animated #elzdspbh1usks {animation: 1s 1 forwards cubic-bezier(.36,-0.01,.5,1.38) lightSpeedRight;animation-delay: 0.34285714285714286s;opacity: 0}svg#freepik_stories-online-gallery.animated #elbs3kulrd0qq {animation: 1s 1 forwards cubic-bezier(.36,-0.01,.5,1.38) lightSpeedRight;animation-delay: 0.35714285714285715s;opacity: 0}svg#freepik_stories-online-gallery.animated #elgl07mt8lpf {animation: 1s 1 forwards cubic-bezier(.36,-0.01,.5,1.38) lightSpeedRight;animation-delay: 0.37142857142857144s;opacity: 0}svg#freepik_stories-online-gallery.animated #elh43tgcx9oze {animation: 1s 1 forwards cubic-bezier(.36,-0.01,.5,1.38) lightSpeedRight;animation-delay: 0.3857142857142857s;opacity: 0}svg#freepik_stories-online-gallery.animated #el5ig8bcha9lr {animation: 1s 1 forwards cubic-bezier(.36,-0.01,.5,1.38) lightSpeedRight;animation-delay: 0.39999999999999997s;opacity: 0}svg#freepik_stories-online-gallery.animated #elg3f4znqs98a {animation: 1s 1 forwards cubic-bezier(.36,-0.01,.5,1.38) lightSpeedRight;animation-delay: 0.41428571428571426s;opacity: 0}svg#freepik_stories-online-gallery.animated #el018ovqai3tl7 {animation: 1s 1 forwards cubic-bezier(.36,-0.01,.5,1.38) lightSpeedRight;animation-delay: 0.42857142857142855s;opacity: 0}svg#freepik_stories-online-gallery.animated #elt0s64vb4ba {animation: 1s 1 forwards cubic-bezier(.36,-0.01,.5,1.38) lightSpeedRight;animation-delay: 0.44285714285714284s;opacity: 0}svg#freepik_stories-online-gallery.animated #elfhg3rfbdfv5 {animation: 1s 1 forwards cubic-bezier(.36,-0.01,.5,1.38) lightSpeedRight;animation-delay: 0.45714285714285713s;opacity: 0}svg#freepik_stories-online-gallery.animated #elju4si5ci4pj {animation: 1s 1 forwards cubic-bezier(.36,-0.01,.5,1.38) lightSpeedRight;animation-delay: 0.4714285714285714s;opacity: 0}svg#freepik_stories-online-gallery.animated #elu24w8caiwuo {animation: 1s 1 forwards cubic-bezier(.36,-0.01,.5,1.38) lightSpeedRight;animation-delay: 0.4857142857142857s;opacity: 0}svg#freepik_stories-online-gallery.animated #ely9oefor8jpe {animation: 1s 1 forwards cubic-bezier(.36,-0.01,.5,1.38) lightSpeedRight;animation-delay: 0.5s;opacity: 0}svg#freepik_stories-online-gallery.animated #elv90wh3nzyt9 {animation: 1s 1 forwards cubic-bezier(.36,-0.01,.5,1.38) lightSpeedRight;animation-delay: 0.5142857142857142s;opacity: 0}svg#freepik_stories-online-gallery.animated #elmbhdtan8m8b {animation: 1s 1 forwards cubic-bezier(.36,-0.01,.5,1.38) lightSpeedRight;animation-delay: 0.5285714285714286s;opacity: 0}svg#freepik_stories-online-gallery.animated #elqk5c8599lj {animation: 1s 1 forwards cubic-bezier(.36,-0.01,.5,1.38) lightSpeedRight;animation-delay: 0.5428571428571428s;opacity: 0}svg#freepik_stories-online-gallery.animated #eluzj9lw1girt {animation: 1s 1 forwards cubic-bezier(.36,-0.01,.5,1.38) lightSpeedRight;animation-delay: 0.5571428571428572s;opacity: 0}svg#freepik_stories-online-gallery.animated #elj21ssrt1808 {animation: 1s 1 forwards cubic-bezier(.36,-0.01,.5,1.38) lightSpeedRight;animation-delay: 0.5714285714285714s;opacity: 0}svg#freepik_stories-online-gallery.animated #elffoz45ualz4 {animation: 1s 1 forwards cubic-bezier(.36,-0.01,.5,1.38) lightSpeedRight;animation-delay: 0.5857142857142857s;opacity: 0}svg#freepik_stories-online-gallery.animated #elv5fwhivwp9 {animation: 1s 1 forwards cubic-bezier(.36,-0.01,.5,1.38) lightSpeedRight;animation-delay: 0.6s;opacity: 0}svg#freepik_stories-online-gallery.animated #elurwixqpyoul {animation: 1s 1 forwards cubic-bezier(.36,-0.01,.5,1.38) lightSpeedRight;animation-delay: 0.6142857142857142s;opacity: 0}svg#freepik_stories-online-gallery.animated #elf4dr822p2x9 {animation: 1s 1 forwards cubic-bezier(.36,-0.01,.5,1.38) lightSpeedRight;animation-delay: 0.6285714285714286s;opacity: 0}svg#freepik_stories-online-gallery.animated #ell13siegut3 {animation: 1s 1 forwards cubic-bezier(.36,-0.01,.5,1.38) lightSpeedRight;animation-delay: 0.6428571428571428s;opacity: 0}svg#freepik_stories-online-gallery.animated #elz11kwqe0ul9 {animation: 1s 1 forwards cubic-bezier(.36,-0.01,.5,1.38) lightSpeedRight;animation-delay: 0.6571428571428571s;opacity: 0}svg#freepik_stories-online-gallery.animated #el8wrxjwa2qrq {animation: 1s 1 forwards cubic-bezier(.36,-0.01,.5,1.38) lightSpeedRight;animation-delay: 0.6714285714285714s;opacity: 0}svg#freepik_stories-online-gallery.animated #elhe1zvdd1kut {animation: 1s 1 forwards cubic-bezier(.36,-0.01,.5,1.38) lightSpeedRight;animation-delay: 0.6857142857142857s;opacity: 0}svg#freepik_stories-online-gallery.animated #elehhypuj8xej {animation: 1s 1 forwards cubic-bezier(.36,-0.01,.5,1.38) lightSpeedRight;animation-delay: 0.7s;opacity: 0}svg#freepik_stories-online-gallery.animated #elsmo6j37uzpl {animation: 1s 1 forwards cubic-bezier(.36,-0.01,.5,1.38) lightSpeedRight;animation-delay: 0.7142857142857143s;opacity: 0}svg#freepik_stories-online-gallery.animated #elq9s43bk86ao {animation: 1s 1 forwards cubic-bezier(.36,-0.01,.5,1.38) lightSpeedRight;animation-delay: 0.7285714285714285s;opacity: 0}svg#freepik_stories-online-gallery.animated #elzn5q31kytsk {animation: 1s 1 forwards cubic-bezier(.36,-0.01,.5,1.38) lightSpeedRight;animation-delay: 0.7428571428571429s;opacity: 0}svg#freepik_stories-online-gallery.animated #elz1prov4g3n {animation: 1s 1 forwards cubic-bezier(.36,-0.01,.5,1.38) lightSpeedRight;animation-delay: 0.7571428571428571s;opacity: 0}svg#freepik_stories-online-gallery.animated #elfyvdlj7685o {animation: 1s 1 forwards cubic-bezier(.36,-0.01,.5,1.38) lightSpeedRight;animation-delay: 0.7714285714285714s;opacity: 0}svg#freepik_stories-online-gallery.animated #elxtcr4vswy8 {animation: 1s 1 forwards cubic-bezier(.36,-0.01,.5,1.38) lightSpeedRight;animation-delay: 0.7857142857142857s;opacity: 0}svg#freepik_stories-online-gallery.animated #elednquwzre {animation: 1s 1 forwards cubic-bezier(.36,-0.01,.5,1.38) lightSpeedRight;animation-delay: 0.7999999999999999s;opacity: 0}svg#freepik_stories-online-gallery.animated #elvrwhrnxztqo {animation: 1s 1 forwards cubic-bezier(.36,-0.01,.5,1.38) lightSpeedRight;animation-delay: 0.8142857142857143s;opacity: 0}svg#freepik_stories-online-gallery.animated #eld38t034w5b {animation: 1s 1 forwards cubic-bezier(.36,-0.01,.5,1.38) lightSpeedRight;animation-delay: 0.8285714285714285s;opacity: 0}svg#freepik_stories-online-gallery.animated #elt4sujwx7u4 {animation: 1s 1 forwards cubic-bezier(.36,-0.01,.5,1.38) lightSpeedRight;animation-delay: 0.8428571428571429s;opacity: 0}svg#freepik_stories-online-gallery.animated #elu14xdu9wmhm {animation: 1s 1 forwards cubic-bezier(.36,-0.01,.5,1.38) lightSpeedRight;animation-delay: 0.8571428571428571s;opacity: 0}svg#freepik_stories-online-gallery.animated #elrtb07m65a9b {animation: 1s 1 forwards cubic-bezier(.36,-0.01,.5,1.38) lightSpeedRight;animation-delay: 0.8714285714285714s;opacity: 0}svg#freepik_stories-online-gallery.animated #el2b2w1h27ulw {animation: 1s 1 forwards cubic-bezier(.36,-0.01,.5,1.38) lightSpeedRight;animation-delay: 0.8857142857142857s;opacity: 0}svg#freepik_stories-online-gallery.animated #elte4lwdlj2zb {animation: 1s 1 forwards cubic-bezier(.36,-0.01,.5,1.38) lightSpeedRight;animation-delay: 0.9s;opacity: 0}svg#freepik_stories-online-gallery.animated #elola74pqyf2i {animation: 1s 1 forwards cubic-bezier(.36,-0.01,.5,1.38) lightSpeedRight;animation-delay: 0.9142857142857143s;opacity: 0}svg#freepik_stories-online-gallery.animated #elo0bus4ph6xk {animation: 1s 1 forwards cubic-bezier(.36,-0.01,.5,1.38) lightSpeedRight;animation-delay: 0.9285714285714285s;opacity: 0}svg#freepik_stories-online-gallery.animated #eleav6o5p696 {animation: 1s 1 forwards cubic-bezier(.36,-0.01,.5,1.38) lightSpeedRight;animation-delay: 0.9428571428571428s;opacity: 0}svg#freepik_stories-online-gallery.animated #elilqvaioejf {animation: 1s 1 forwards cubic-bezier(.36,-0.01,.5,1.38) lightSpeedRight;animation-delay: 0.9571428571428571s;opacity: 0}svg#freepik_stories-online-gallery.animated #el1g79yttpsz2 {animation: 1s 1 forwards cubic-bezier(.36,-0.01,.5,1.38) lightSpeedRight;animation-delay: 0.9714285714285714s;opacity: 0}svg#freepik_stories-online-gallery.animated #elrmgcvoxko9n {animation: 1s 1 forwards cubic-bezier(.36,-0.01,.5,1.38) lightSpeedRight;animation-delay: 0.9857142857142857s;opacity: 0}svg#freepik_stories-online-gallery.animated #freepik--Character--inject-34 {animation: 1s 1 forwards cubic-bezier(.36,-0.01,.5,1.38) lightSpeedRight,1.5s Infinite  linear floating;animation-delay: 0s,1s;}            @keyframes lightSpeedRight {              from {                transform: translate3d(50%, 0, 0) skewX(-20deg);                opacity: 0;              }              60% {                transform: skewX(10deg);                opacity: 1;              }              80% {                transform: skewX(-2deg);              }              to {                opacity: 1;                transform: translate3d(0, 0, 0);              }            }                    @keyframes floating {                0% {                    opacity: 1;                    transform: translateY(0px);                }                50% {                    transform: translateY(-10px);                }                100% {                    opacity: 1;                    transform: translateY(0px);                }            }        </style><g id="freepik--background-complete--inject-34" class="animable" style="transform-origin: 256.991px 255.53px;"><rect x="46.19" y="44.84" width="94.91" height="130.66" style="fill: rgb(224, 224, 224); transform-origin: 93.645px 110.17px;" id="elqq4zvs82fjl" class="animable"></rect><rect x="37.15" y="44.84" width="98.02" height="130.66" style="fill: rgb(235, 235, 235); transform-origin: 86.16px 110.17px;" id="elww2d27g2pnj" class="animable"></rect><rect x="46.5" y="53.98" width="79.34" height="111.44" style="fill: rgb(250, 250, 250); transform-origin: 86.17px 109.7px;" id="elgbjd1r7xs5s" class="animable"></rect><path d="M46.5,165.42h79.34V136.19H46.5Z" style="fill: rgb(245, 245, 245); transform-origin: 86.17px 150.805px;" id="eli8bozo0jihg" class="animable"></path><path d="M94.93,104.05l2.57,6s-5.86,4.28-5,10.87,5.74,19.91,5.74,19.91h10.26s5.13-18.57,5-21.62-4.52-9-4.52-9l2.32-6.1S102.14,98.43,94.93,104.05Z" style="fill: rgb(224, 224, 224); transform-origin: 102.958px 121.199px;" id="elj0mzg0pybu" class="animable"></path><path d="M94.4,123.71c-2-1.79-4.45-4-5.26-7a4,4,0,0,1,.45-3.55,3.57,3.57,0,0,1,3-1.26,9,9,0,0,1,2.86.7L95,113.82a8.05,8.05,0,0,0-2.43-.62,2.29,2.29,0,0,0-1.89.74,2.86,2.86,0,0,0-.21,2.38c.71,2.64,3,4.72,4.86,6.39Z" style="fill: rgb(224, 224, 224); transform-origin: 92.1821px 117.8px;" id="eldstyig30nw7" class="animable"></path><path d="M112.44,124.54l-1-.89a16,16,0,0,0,2.93-4.67,6.47,6.47,0,0,0,.59-2.32,2.89,2.89,0,0,0-.61-2,2.59,2.59,0,0,0-2.19-.8,3.84,3.84,0,0,0-2.27,1.16l-1-1a5.23,5.23,0,0,1,3.09-1.55,3.92,3.92,0,0,1,3.33,1.25,4.22,4.22,0,0,1,1,2.94,8.21,8.21,0,0,1-.69,2.78A17.39,17.39,0,0,1,112.44,124.54Z" style="fill: rgb(224, 224, 224); transform-origin: 112.603px 118.493px;" id="elgk4l3801yvu" class="animable"></path><path d="M111.3,104.1a9.33,9.33,0,0,1-2.36.59,35.07,35.07,0,0,1-5.84.53,36.93,36.93,0,0,1-5.85-.43,8.7,8.7,0,0,1-2.36-.56,16.82,16.82,0,0,1,2.41.21,53.55,53.55,0,0,0,5.8.28,55.55,55.55,0,0,0,5.79-.37A15.81,15.81,0,0,1,111.3,104.1Z" style="fill: rgb(235, 235, 235); transform-origin: 103.095px 104.66px;" id="elg6llojsgla" class="animable"></path><path d="M125.84,69.05c-1-1.35-5.72-3.07-7.38-3.34-7.38-1.22-15.1-1.34-22.2,1S82.72,74.15,80,81.09C78.51,84.68,78.07,88.64,76.2,92c-2.38,4.29-6.72,7.06-10,10.68a26.6,26.6,0,0,0-1.39,34.21l19.92.25c-.49-7.84-.47-15.85,1.86-23.34S93.84,99.34,101,96.09c7.51-3.4,17-2.58,25.19-1.41Z" style="fill: rgb(235, 235, 235); transform-origin: 92.7187px 100.997px;" id="elzwkjkyih7xe" class="animable"></path><path d="M75.34,54c2.21,3.4-.63,9-3.52,11.8S65.24,71,63.89,74.85s0,8.08-.63,12.09a12,12,0,0,1-16.76,9V54Z" style="fill: rgb(235, 235, 235); transform-origin: 61.3144px 75.4972px;" id="elc5uis9hezwn" class="animable"></path><path d="M67.48,126.52s1.08,1.52.65,2.49-5.63,7.9-3.68,12.66a54.46,54.46,0,0,0,5.84,10H82.41s6-9.41,5.84-12.55c-.21-5.2-4-10.6-4-10.6l1-2S74,123.28,67.48,126.52Z" style="fill: rgb(224, 224, 224); transform-origin: 76.1336px 138.375px;" id="el6mq1gblzj5c" class="animable"></path><path d="M125.84,165.42s0-.19,0-.54,0-.89,0-1.57c0-1.4,0-3.44,0-6.09,0-5.32,0-13.08-.06-22.89,0-19.62-.07-47.45-.11-80.35l.22.22-79.33,0h0l.25-.25c0,41.74,0,80.34,0,111.44l-.2-.2,57.68.1,16,.05,4.21,0c1,0,1.45,0,1.45,0l-1.41,0-4.17,0-16,.06-57.81.1h-.2v-.2c0-31.1,0-69.7,0-111.44v-.25h.26l79.33,0h.23V54c0,33-.08,60.84-.11,80.49,0,9.8,0,17.54-.06,22.85,0,2.63,0,4.66,0,6,0,.67,0,1.19,0,1.54S125.84,165.42,125.84,165.42Z" style="fill: rgb(224, 224, 224); transform-origin: 86.27px 109.555px;" id="elu3h9hmtczim" class="animable"></path><path d="M135.16,44.84a33.45,33.45,0,0,1-4.48,4.75A58.23,58.23,0,0,1,125.84,54a34.66,34.66,0,0,1,4.49-4.75A61.16,61.16,0,0,1,135.16,44.84Z" style="fill: rgb(224, 224, 224); transform-origin: 130.5px 49.42px;" id="elm8bgbtlwyd" class="animable"></path><path d="M36.89,44.81a45.78,45.78,0,0,1,5,4.41A44.42,44.42,0,0,1,46.58,54a45.88,45.88,0,0,1-5-4.42A43.05,43.05,0,0,1,36.89,44.81Z" style="fill: rgb(224, 224, 224); transform-origin: 41.735px 49.405px;" id="elhns86odk7mp" class="animable"></path><path d="M37.15,175.5a44.27,44.27,0,0,1,4.45-4.94,43.78,43.78,0,0,1,4.81-4.6A44.46,44.46,0,0,1,42,170.9,43.78,43.78,0,0,1,37.15,175.5Z" style="fill: rgb(224, 224, 224); transform-origin: 41.78px 170.73px;" id="elo5l45lwz85" class="animable"></path><path d="M134.85,175.67c-.13.08-1.75-2.57-4.26-5.42s-4.91-4.82-4.81-4.94a7,7,0,0,1,1.67,1.17,32.22,32.22,0,0,1,6.46,7.38A6.88,6.88,0,0,1,134.85,175.67Z" style="fill: rgb(224, 224, 224); transform-origin: 130.313px 170.491px;" id="elienzwkkec3n" class="animable"></path><rect x="379.75" y="43.17" width="82.89" height="82.89" style="fill: rgb(235, 235, 235); transform-origin: 421.195px 84.615px;" id="elldupnkdh0ki" class="animable"></rect><rect x="382.19" y="45.6" width="78.01" height="78.01" style="fill: rgb(255, 255, 255); transform-origin: 421.195px 84.605px;" id="eld0z7z294np" class="animable"></rect><rect x="410" y="73.41" width="22.4" height="22.4" style="fill: rgb(224, 224, 224); transform-origin: 421.2px 84.61px;" id="elysavkdqj7h" class="animable"></rect><rect x="462.64" y="43.19" width="3.49" height="82.87" style="fill: rgb(224, 224, 224); transform-origin: 464.385px 84.625px;" id="elglk4uc91cu" class="animable"></rect><path d="M383.13,272.84c-2.29,18.35,3.58,46.32,8.93,62.58s4.21,34.23,4.21,53.35,11.47,54.68,11.47,54.68v0H393.19v12.21H447V443.48h-8.33c2.23-7.53,10.54-36.15,11.86-47.06,1.53-12.62,2.28-32.71,2.28-32.71s5.45-29.65,5.41-48.69c0-21.35-3.1-57-3.1-57l-2.86-34,1.21,3.71A31.36,31.36,0,0,0,464.07,243a9.93,9.93,0,0,0,3.2,1.84c3.4.78,6.53-1.57,9.28-10.45s-8.49-41-8.49-41l-5.69-4.63a40.8,40.8,0,0,0-2.52-6.09c-3.85-7.18-15-7.27-15-7.27h0l-2.54-.09,1.05-14.18c-11.56-.74-19.87,1.79-25.24,7.27l-1.09,6-13.54,3s-9.66,1-13.55,7.58-20.5,45.38-20.66,50.46,17.1,25.57,17.1,25.57l.15-.24A47.16,47.16,0,0,0,383.13,272.84ZM420,432.36c.76-20.65,0-55.44,0-55.44s.76-11.09,1.15-16.06,2.7-61.17,2.7-61.17l4.5,63.49s-3.75,26.33-4.9,36.86c-1,9.35-.32,37.32-.14,43.44h-2A31.92,31.92,0,0,1,420,432.36ZM389.37,231l10.4-19,3.77,22.35A92.19,92.19,0,0,0,393,248.13Z" style="fill: rgb(235, 235, 235); transform-origin: 423.131px 308.332px;" id="elrwej7yhp23j" class="animable"></path><path d="M420,432.36c.76-20.65,0-55.44,0-55.44s.76-11.09,1.15-16.06,2.7-61.17,2.7-61.17l4.5,63.49s-3.75,26.33-4.9,36.86c-1,9.35-.32,37.32-.14,43.44h-2A31.92,31.92,0,0,1,420,432.36ZM389.37,231l10.4-19,3.77,22.35A92.19,92.19,0,0,0,393,248.13Z" style="fill: none; transform-origin: 408.86px 327.74px;" id="eli5mwh6fe28" class="animable"></path><path d="M432.26,239c-.13,0-.2.67-.14,1.48s.23,1.46.36,1.44.2-.67.14-1.48S432.4,239,432.26,239Z" style="fill: rgb(224, 224, 224); transform-origin: 432.37px 240.46px;" id="elmiyyllwx9ko" class="animable"></path><path d="M423.83,300.52a5,5,0,0,0,.06-1.13c0-.72,0-1.77-.07-3.06a84.9,84.9,0,0,0-1-10.05,43.18,43.18,0,0,0-2.65-9.76,23.4,23.4,0,0,0-1.36-2.75,4.67,4.67,0,0,0-.63-.93c-.08,0,.75,1.41,1.66,3.81a49.76,49.76,0,0,1,2.49,9.71c.65,3.87.93,7.42,1.14,10,.09,1.21.16,2.22.22,3A5.53,5.53,0,0,0,423.83,300.52Z" style="fill: rgb(224, 224, 224); transform-origin: 421.037px 286.68px;" id="eloadjm04r3m" class="animable"></path><path d="M438.68,275.88a23.57,23.57,0,0,0-2.28,2c-1.38,1.27-3.31,3-5.53,4.79s-4.3,3.34-5.82,4.43a24.79,24.79,0,0,0-2.45,1.81,15.4,15.4,0,0,0,2.64-1.52,70.52,70.52,0,0,0,11.41-9.25A15.74,15.74,0,0,0,438.68,275.88Z" style="fill: rgb(224, 224, 224); transform-origin: 430.64px 282.395px;" id="elavzdf8y122q" class="animable"></path><path d="M403.82,234.17a1.82,1.82,0,0,0-.35.34l-1,1.06c-.81.92-2,2.27-3.37,4s-3,3.77-4.69,6.15a71.85,71.85,0,0,0-5,8.07A56.2,56.2,0,0,0,383.75,270a51.64,51.64,0,0,0-.64,5.18c0,.57-.06,1-.08,1.42a2,2,0,0,0,0,.49,1.87,1.87,0,0,0,.1-.49c.05-.38.11-.84.18-1.4.1-1.23.4-3,.78-5.14a59.87,59.87,0,0,1,5.82-16,73.78,73.78,0,0,1,4.93-8c1.64-2.39,3.23-4.47,4.59-6.2l3.24-4.08.88-1.11C403.74,234.32,403.84,234.18,403.82,234.17Z" style="fill: rgb(224, 224, 224); transform-origin: 393.419px 255.63px;" id="elzcprlszqurg" class="animable"></path><rect x="381.3" y="455.69" width="79.88" height="12.2" style="fill: rgb(224, 224, 224); transform-origin: 421.24px 461.79px;" id="el43qs2bmml8" class="animable"></rect><path d="M405.52,200.82a2.55,2.55,0,0,0,.25-.87,22.45,22.45,0,0,0,.35-2.42,26.7,26.7,0,0,0-.54-8.05,20.77,20.77,0,0,0-1.38-4.25,10.07,10.07,0,0,0-2.07-3,5.61,5.61,0,0,0-2.09-1.33,3,3,0,0,0-.65-.16c-.15,0-.23,0-.23,0a7.45,7.45,0,0,1,2.72,1.75,10.28,10.28,0,0,1,1.9,3,22.84,22.84,0,0,1,1.31,4.16,30.35,30.35,0,0,1,.68,7.93C405.67,199.55,405.44,200.81,405.52,200.82Z" style="fill: rgb(224, 224, 224); transform-origin: 402.688px 190.78px;" id="elxymqknt7qgc" class="animable"></path><path d="M458.84,230a3,3,0,0,0,0-.44c0-.32,0-.76,0-1.31,0-1.18.06-2.86.1-5,.05-4.37.13-10.63.23-18.31v0l0,0-2.07-4.58,0-.1-.14,0a5.74,5.74,0,0,1-1.73-.62,16.36,16.36,0,0,1-1.68-1c-1.1-.74-2.16-1.64-3.27-2.51l-6.88-5.49-.07-.05h-.07c-1.31-.06-2.67-.15-4-.29a12.59,12.59,0,0,1-2-.33c-.19-.09-.14,0-.16-.11a.71.71,0,0,1,.16-.35,3.86,3.86,0,0,1,.69-.71l.38-.31-.47-.12a1.67,1.67,0,0,1-.84-.45c-.19-.21-.16-.47,0-.76a9.25,9.25,0,0,1,1.49-1.74l.07-.09c.05,0,.2-.18.33-.28l.42-.32.89-.63,1.84-1.23,3.82-2.47-.14,0h.13l6.25.26-.15-.05,15.94,13-.07-.11A219.88,219.88,0,0,1,476,222.66a48,48,0,0,1,.92,8.62,18.79,18.79,0,0,1-.2,2.29l-.12.58c0,.13,0,.2,0,.2l.06-.19.16-.58a14.65,14.65,0,0,0,.27-2.3,43.59,43.59,0,0,0-.79-8.66,209.37,209.37,0,0,0-8-29.35l0-.06-.05,0-15.92-13-.06-.05h-.08l-6.25-.27h-.21l-.07,0-3.82,2.47-1.85,1.24-.9.64a4.61,4.61,0,0,0-.9.78l.07-.08a9.47,9.47,0,0,0-1.59,1.85,1.39,1.39,0,0,0-.26.66,1,1,0,0,0,.24.7,2.14,2.14,0,0,0,1.11.6l-.1-.43a4.73,4.73,0,0,0-.79.82,1.18,1.18,0,0,0-.25.61.49.49,0,0,0,.15.41.78.78,0,0,0,.33.18,11.82,11.82,0,0,0,2.13.35c1.38.14,2.74.22,4.06.28l-.14-.05,6.91,5.47c1.11.87,2.17,1.76,3.3,2.52a16.09,16.09,0,0,0,1.73,1,5.75,5.75,0,0,0,1.92.66l-.19-.12c.74,1.6,1.44,3.14,2.1,4.57V205c0,7.68-.05,13.94-.07,18.31,0,2.15,0,3.83,0,5,0,.55,0,1,0,1.31A3.72,3.72,0,0,0,458.84,230Z" style="fill: rgb(224, 224, 224); transform-origin: 456.75px 207.12px;" id="elsii2aonj97n" class="animable"></path><path d="M450.72,188.11c0-.07-.73-.33-1.81-1a20.56,20.56,0,0,0-2-1.17,4.79,4.79,0,0,0-2.83-.51,7.56,7.56,0,0,0-2.68,1c-.75.43-1.38.88-1.92,1.22-1.08.71-1.82,1-1.79,1.07a4.8,4.8,0,0,0,2-.77c1.14-.59,2.6-1.74,4.49-2a4.44,4.44,0,0,1,2.57.43c.76.34,1.41.75,2,1.06A4.31,4.31,0,0,0,450.72,188.11Z" style="fill: rgb(224, 224, 224); transform-origin: 444.205px 187.056px;" id="elowm3bamoi5o" class="animable"></path><path d="M452.57,185.2a9.13,9.13,0,0,0-1.8-1.83,9.68,9.68,0,0,0-2.37-1.5,6.41,6.41,0,0,0-3.44-.45,11.17,11.17,0,0,0-5.54,2.74,10,10,0,0,0-1.83,1.79,16.79,16.79,0,0,0,2.05-1.51,11.94,11.94,0,0,1,5.39-2.53,6.27,6.27,0,0,1,3.2.38,11,11,0,0,1,2.33,1.36A21.43,21.43,0,0,0,452.57,185.2Z" style="fill: rgb(224, 224, 224); transform-origin: 445.08px 183.652px;" id="ela4yfwoua04" class="animable"></path><path d="M454.53,199.54c-.11,0,.3,1.59.28,4.17a31.86,31.86,0,0,1-.4,4.51c-.27,1.68-.65,3.53-1.08,5.46s-.8,3.8-1.06,5.5a29,29,0,0,0-.33,4.57,13.38,13.38,0,0,0,.1,1.76,8.19,8.19,0,0,0,.19,1.31,4.49,4.49,0,0,0,.28,1.1c.11,0-.27-1.59-.22-4.17a30.76,30.76,0,0,1,.44-4.5c.28-1.69.67-3.53,1.09-5.47s.79-3.8,1-5.5a26.49,26.49,0,0,0,.3-4.57A15.07,15.07,0,0,0,455,202a9,9,0,0,0-.21-1.31A5.5,5.5,0,0,0,454.53,199.54Z" style="fill: rgb(224, 224, 224); transform-origin: 453.533px 213.73px;" id="elfoj5id4ai2q" class="animable"></path><path d="M389,231.78s-.22-.55-.87-1.22a8.53,8.53,0,0,0-3.06-1.93,8.32,8.32,0,0,0-3.6-.48,3.24,3.24,0,0,0-1.45.37,13.53,13.53,0,0,1,4.87.58A13.26,13.26,0,0,1,389,231.78Z" style="fill: rgb(224, 224, 224); transform-origin: 384.51px 229.949px;" id="el6f0xpe0c4c" class="animable"></path><path d="M433.89,199.54c-.1,0-.19,1.31-.82,3.31a18.67,18.67,0,0,1-1.47,3.37,19.24,19.24,0,0,1-6,6.57,19.11,19.11,0,0,1-3.23,1.75c-1.95.8-3.25,1-3.23,1.1a3.35,3.35,0,0,0,.92-.1,6.38,6.38,0,0,0,1.06-.24,11.08,11.08,0,0,0,1.37-.43,17,17,0,0,0,3.36-1.69,20.2,20.2,0,0,0,3.52-3,19.67,19.67,0,0,0,2.66-3.76,16.74,16.74,0,0,0,1.4-3.48,10.59,10.59,0,0,0,.32-1.41,7.45,7.45,0,0,0,.15-1.08A3.91,3.91,0,0,0,433.89,199.54Z" style="fill: rgb(224, 224, 224); transform-origin: 426.531px 207.591px;" id="el60phumaozg3" class="animable"></path><rect x="407.44" y="458.97" width="28.46" height="5.22" style="fill: rgb(245, 245, 245); transform-origin: 421.67px 461.58px;" id="el11rwtf9ximw" class="animable"></rect><path d="M443.41,161.09s-10.37,15.26-25.24,7.27C418.17,168.36,425.13,159.54,443.41,161.09Z" style="fill: rgb(224, 224, 224); transform-origin: 430.79px 165.791px;" id="elxcp38ra9tzq" class="animable"></path><path d="M418.54,168a41.46,41.46,0,0,0,3.9,1.48,17.94,17.94,0,0,0,9.88,0,19.38,19.38,0,0,0,8.43-5.2c1.78-1.87,2.57-3.29,2.66-3.23a4.36,4.36,0,0,1-.52,1,17.87,17.87,0,0,1-1.86,2.48,18.64,18.64,0,0,1-8.56,5.45,17.46,17.46,0,0,1-10.13-.15,15.1,15.1,0,0,1-2.85-1.23A3.58,3.58,0,0,1,418.54,168Z" style="fill: rgb(224, 224, 224); transform-origin: 430.975px 165.853px;" id="elndscbnpbpcq" class="animable"></path></g><g id="freepik--Device--inject-34" class="animable" style="transform-origin: 259.605px 264.16px;"><rect x="118.27" y="61.31" width="282.67" height="405.66" rx="11.55" style="fill: rgb(38, 50, 56); transform-origin: 259.605px 264.14px;" id="elt0ck9b2o3aq" class="animable"></rect><rect x="126.65" y="90.25" width="264.85" height="338.78" style="fill: rgb(255, 255, 255); transform-origin: 259.075px 259.64px;" id="el1kic2u1c2gc" class="animable"></rect><path d="M271.38,447.51a22.15,22.15,0,0,0-.46-2.85,11.79,11.79,0,0,0-4.29-6.37,11.58,11.58,0,0,0-10.95-1.62,10.92,10.92,0,0,0-2.92,1.58,10.47,10.47,0,0,0-2.43,2.45,11.47,11.47,0,0,0,0,13.62,10.71,10.71,0,0,0,2.43,2.46,10.88,10.88,0,0,0,2.92,1.57,11.57,11.57,0,0,0,10.95-1.62,11.79,11.79,0,0,0,4.29-6.37,21.86,21.86,0,0,0,.46-2.85,3.91,3.91,0,0,1,0,.75,5.34,5.34,0,0,1-.06.92,8.48,8.48,0,0,1-.22,1.23,11.76,11.76,0,0,1-4.27,6.6,11.87,11.87,0,0,1-11.32,1.77,12,12,0,0,1-5.59-4.17,11.94,11.94,0,0,1,0-14.2,11.22,11.22,0,0,1,2.55-2.55,11.6,11.6,0,0,1,3-1.62,11.87,11.87,0,0,1,15.59,8.37,8.6,8.6,0,0,1,.22,1.24,5.17,5.17,0,0,1,.06.91A3.91,3.91,0,0,1,271.38,447.51Z" style="fill: rgb(69, 90, 100); transform-origin: 259.489px 447.51px;" id="el2861qpxdb4w" class="animable"></path><rect x="217.04" y="72.99" width="85.14" height="4.48" rx="1.22" style="fill: rgb(69, 90, 100); transform-origin: 259.61px 75.23px;" id="elbqkjya80c4" class="animable"></rect><rect x="126.65" y="90.25" width="264.85" height="25" style="fill: rgb(224, 224, 224); transform-origin: 259.075px 102.75px;" id="el8iysdjwakup" class="animable"></rect><path d="M143.28,103.19a3.07,3.07,0,1,1-3.07-3.24A3.16,3.16,0,0,1,143.28,103.19Z" style="fill: rgb(38, 50, 56); transform-origin: 140.213px 103.02px;" id="elde3hxlkhecc" class="animable"></path><path d="M154.69,103.19a3.07,3.07,0,1,1-3.07-3.24A3.16,3.16,0,0,1,154.69,103.19Z" style="fill: rgb(38, 50, 56); transform-origin: 151.623px 103.02px;" id="elyaxdfv942pa" class="animable"></path><path d="M166.09,103.19A3.07,3.07,0,1,1,163,100,3.16,3.16,0,0,1,166.09,103.19Z" style="fill: rgb(38, 50, 56); transform-origin: 163.021px 103.07px;" id="elmohvb1bqwzk" class="animable"></path><rect x="140.63" y="348.95" width="240.73" height="69.91" style="fill: rgb(245, 245, 245); transform-origin: 260.995px 383.905px;" id="elyyg2u8tvhf" class="animable"></rect><path d="M196,363.93c0,.14-9.35.26-20.88.26s-20.89-.12-20.89-.26,9.35-.26,20.89-.26S196,363.79,196,363.93Z" style="fill: rgb(224, 224, 224); transform-origin: 175.115px 363.93px;" id="elhakm9ckquke" class="animable"></path><path d="M367.15,380.27c0,.15-48.88.26-109.17.26s-109.18-.11-109.18-.26S197.67,380,258,380,367.15,380.13,367.15,380.27Z" style="fill: rgb(224, 224, 224); transform-origin: 257.975px 380.265px;" id="elpzgug1uiwun" class="animable"></path><path d="M371.69,389.8c0,.15-49.39.27-110.3.27s-110.32-.12-110.32-.27,49.38-.26,110.32-.26S371.69,389.66,371.69,389.8Z" style="fill: rgb(224, 224, 224); transform-origin: 261.38px 389.805px;" id="ele9yelep9f76" class="animable"></path><path d="M371.51,400.38c0,.14-50.1.26-111.89.26s-111.91-.12-111.91-.26,50.09-.26,111.91-.26S371.51,400.24,371.51,400.38Z" style="fill: rgb(224, 224, 224); transform-origin: 259.61px 400.38px;" id="el7vb1wg38768" class="animable"></path><circle cx="157.43" cy="221.37" r="20.53" style="fill: rgb(235, 235, 235); transform-origin: 157.43px 221.37px;" id="elklp3idn53om" class="animable"></circle><path d="M160.08,231.11a1,1,0,0,1-.7-.29l-8.5-8.5a1,1,0,0,1-.3-.71,1,1,0,0,1,.3-.71l8.5-8.5a1,1,0,0,1,1.41,0,1,1,0,0,1,0,1.42L153,221.61l7.79,7.79a1,1,0,0,1-.71,1.71Z" style="fill: rgb(38, 50, 56); transform-origin: 155.833px 221.61px;" id="elnewz481n5lp" class="animable"></path><circle cx="364.25" cy="221.37" r="20.53" style="fill: rgb(235, 235, 235); transform-origin: 364.25px 221.37px;" id="elmije3pl4v4" class="animable"></circle><path d="M361.6,230.63a1,1,0,0,1-.7-.29,1,1,0,0,1,0-1.42l7.79-7.79-7.79-7.79a1,1,0,0,1,1.41-1.42l8.5,8.5a1,1,0,0,1,0,1.42l-8.5,8.5A1,1,0,0,1,361.6,230.63Z" style="fill: rgb(38, 50, 56); transform-origin: 365.855px 221.131px;" id="ellsvolrlj1o" class="animable"></path><rect x="206.59" y="134.84" width="119.02" height="197.02" style="fill: rgb(38, 50, 56); transform-origin: 266.1px 233.35px;" id="eld9zt6eddfkt" class="animable"></rect><rect x="202.63" y="134.84" width="119.02" height="197.02" style="fill: rgb(69, 90, 100); transform-origin: 262.14px 233.35px;" id="elixv0ckgwvr" class="animable"></rect><rect x="207.7" y="138.84" width="108.89" height="189.03" style="fill: rgb(250, 250, 250); transform-origin: 262.145px 233.355px;" id="elfchvjij6xyi" class="animable"></rect><rect x="228.43" y="163.4" width="66.96" height="139.9" style="fill: #6B2239; transform-origin: 261.91px 233.35px;" id="el34hyuaccltc" class="animable"></rect><path d="M228.43,253.79C228.28,240.73,240,228,253,226.14c6.17-.87,12.72.36,18.49-2,10.29-4.22,13.57-17.89,23.93-21.95l.47,101.12H228.43Z" style="fill: #6B2239; transform-origin: 262.159px 252.75px;" id="elv5dvw3dsqrr" class="animable"></path><g id="eltos7ag89g0f"><g style="opacity: 0.3; transform-origin: 262.159px 252.75px;" class="animable" id="el906nfs0un24"><path d="M228.43,253.79C228.28,240.73,240,228,253,226.14c6.17-.87,12.72.36,18.49-2,10.29-4.22,13.57-17.89,23.93-21.95l.47,101.12H228.43Z" id="elefsw3amk9fj" class="animable" style="transform-origin: 262.159px 252.75px;"></path></g></g><path d="M298.91,145.42c.1.11-18.65,18.58-41.87,41.26s-42.14,41-42.24,40.9,18.64-18.58,41.87-41.27S298.81,145.32,298.91,145.42Z" style="fill: rgb(255, 255, 255); transform-origin: 256.855px 186.5px;" id="elgsew8oaf026" class="animable"></path><path d="M207,250.63a5.57,5.57,0,0,1,.46-.61l1.39-1.69c1.22-1.46,3-3.55,5.23-6.11,4.46-5.12,10.73-12.11,17.86-19.64s13.77-14.16,18.64-18.89c2.44-2.37,4.43-4.27,5.82-5.56l1.61-1.48a4.77,4.77,0,0,1,.59-.49,5,5,0,0,1-.52.57l-1.54,1.55-5.7,5.67c-4.81,4.79-11.4,11.47-18.52,19s-13.43,14.46-18,19.52l-5.35,6-1.47,1.62A3.51,3.51,0,0,1,207,250.63Z" style="fill: rgb(255, 255, 255); transform-origin: 232.8px 223.395px;" id="elfmkkmj42ihd" class="animable"></path><path d="M298.19,216.24c.11.1-6,7.24-13.7,16s-14,15.71-14.09,15.62,6-7.24,13.7-16S298.08,216.15,298.19,216.24Z" style="fill: rgb(255, 255, 255); transform-origin: 284.295px 232.05px;" id="elebr9e852vab" class="animable"></path><rect x="339.23" y="134.84" width="32.47" height="32.47" style="fill: rgb(245, 245, 245); transform-origin: 355.465px 151.075px;" id="el4frzd8h2haw" class="animable"></rect><path d="M356,146.35a60,60,0,0,1-11.16,0,60,60,0,0,1,11.16,0Z" style="fill: rgb(224, 224, 224); transform-origin: 350.42px 146.35px;" id="elfmwomv5nnjf" class="animable"></path><path d="M368.8,150.86c0,.15-5.42.26-12.1.26s-12.11-.11-12.11-.26,5.42-.26,12.11-.26S368.8,150.72,368.8,150.86Z" style="fill: rgb(224, 224, 224); transform-origin: 356.695px 150.86px;" id="elnuohiysy5m" class="animable"></path><path d="M356.22,155.14a50.25,50.25,0,0,1-10.21,0,48.4,48.4,0,0,1,10.21,0Z" style="fill: rgb(224, 224, 224); transform-origin: 351.115px 155.135px;" id="elb7xpyb6tazd" class="animable"></path><path d="M152.86,318.69S234,420.21,377.05,325.2v12s-114.88,96.12-224.19-4.72Z" style="fill: #6B2239; transform-origin: 264.955px 348.623px;" id="eljhgg832umy" class="animable"></path><path d="M154.74,461.32V319.54a6.66,6.66,0,1,0-5.3.24V461.32H132.63v5.47h38.29v-5.47Z" style="fill: rgb(245, 245, 245); transform-origin: 151.775px 386.844px;" id="el3wnfyu6mvck" class="animable"></path><path d="M154.74,461.32l1.07,0,3.11,0,12-.06h.1v.1c0,1.68,0,3.51,0,5.47v.11h-.11l-38.29.07h-.18v-5.84h17l-.21.2c0-33,0-74.28,0-119,0-7.64,0-15.18,0-22.57l.16.23a7,7,0,0,1-3.62-3.23A7.19,7.19,0,0,1,145,312a7.1,7.1,0,0,1,2.44-4.09,6.8,6.8,0,0,1,8.8.11,7.11,7.11,0,0,1,2.32,4,7.25,7.25,0,0,1-.59,4.52,7.09,7.09,0,0,1-3.16,3.2l.13-.22c0,41.12-.09,76.53-.11,101.68,0,12.58-.06,22.59-.07,29.47,0,3.43,0,6.08,0,7.88,0,.9,0,1.58,0,2.05s0,.7,0,.7,0-.22,0-.67,0-1.14,0-2c0-1.79,0-4.42,0-7.83,0-6.87,0-16.86-.07-29.42,0-25.19-.07-60.65-.11-101.84v-.15l.13-.07a6.53,6.53,0,0,0,2.94-3,6.7,6.7,0,0,0,.55-4.21,6.62,6.62,0,0,0-2.16-3.71,6.34,6.34,0,0,0-8.17-.1,6.62,6.62,0,0,0-1.61,8.23,6.55,6.55,0,0,0,3.35,3l.16.06v22.74c0,44.69,0,86-.05,119v.2h-17l.19-.19c0,1.92,0,3.8,0,5.47l-.18-.18,38.29.07-.12.11c0-2,0-3.79,0-5.47l.1.1-12.06-.06-3.09,0Z" style="fill: rgb(38, 50, 56); transform-origin: 151.73px 386.679px;" id="elf5u1uvwinl7" class="animable"></path><path d="M155.28,319.22a4.3,4.3,0,0,1-3,1.2,4.37,4.37,0,0,1-3.17-.79,19.29,19.29,0,0,0,3.13.29A19.25,19.25,0,0,0,155.28,319.22Z" style="fill: rgb(38, 50, 56); transform-origin: 152.195px 319.841px;" id="elj1qmcw6hbym" class="animable"></path><path d="M157,461.31a19.44,19.44,0,0,1-4.4.25,19.44,19.44,0,0,1-4.4-.25,19.44,19.44,0,0,1,4.4-.25A19.44,19.44,0,0,1,157,461.31Z" style="fill: rgb(38, 50, 56); transform-origin: 152.6px 461.31px;" id="elhbpn7skoc6g" class="animable"></path><path d="M380.15,461.32V319.54a6.66,6.66,0,1,0-5.3.24V461.32H358v5.47h38.29v-5.47Z" style="fill: rgb(245, 245, 245); transform-origin: 377.145px 386.844px;" id="elbbq2471dhdw" class="animable"></path><path d="M380.15,461.32l1.07,0,3.11,0,12-.06h.1v.1c0,1.68,0,3.51,0,5.47v.11h-.11L358,467h-.18v-5.84h17l-.21.2c0-33,0-74.28,0-119V319.78l.16.23a7,7,0,0,1-3.62-3.23,7.19,7.19,0,0,1-.69-4.75,7.1,7.1,0,0,1,2.44-4.09,6.8,6.8,0,0,1,8.8.11,7.11,7.11,0,0,1,2.32,4,7.25,7.25,0,0,1-.59,4.52,7.09,7.09,0,0,1-3.16,3.2l.13-.22c-.05,41.12-.09,76.53-.11,101.68,0,12.58-.06,22.59-.07,29.47,0,3.43,0,6.08,0,7.88,0,.9,0,1.58,0,2.05s0,.7,0,.7,0-.22,0-.67,0-1.14,0-2c0-1.79,0-4.42,0-7.83,0-6.87,0-16.86-.07-29.42,0-25.19-.07-60.65-.11-101.84v-.15l.13-.07a6.53,6.53,0,0,0,2.94-3,6.7,6.7,0,0,0,.55-4.21,6.62,6.62,0,0,0-2.16-3.71,6.34,6.34,0,0,0-8.17-.1,6.65,6.65,0,0,0-1.61,8.23,6.55,6.55,0,0,0,3.35,3l.16.06v22.74c0,44.69,0,86-.05,119v.2H358l.19-.19c0,1.92,0,3.8,0,5.47l-.18-.18,38.29.07-.12.11c0-2,0-3.79,0-5.47l.1.1-12.05-.06-3.1,0Z" style="fill: rgb(38, 50, 56); transform-origin: 377.125px 386.689px;" id="eln8rug3n6qr" class="animable"></path><path d="M380.69,319.22a4.3,4.3,0,0,1-3,1.2,4.37,4.37,0,0,1-3.17-.79,10,10,0,0,0,6.2-.41Z" style="fill: rgb(38, 50, 56); transform-origin: 377.62px 319.841px;" id="eliw5zib9it39" class="animable"></path><path d="M382.39,461.31a38.84,38.84,0,0,1-8.8,0,38.84,38.84,0,0,1,8.8,0Z" style="fill: rgb(38, 50, 56); transform-origin: 377.99px 461.31px;" id="elhudb8rmwp8s" class="animable"></path><path d="M207.78,357.68a7.26,7.26,0,0,1-1.31-.34c-.84-.24-2.05-.64-3.52-1.16a104.29,104.29,0,0,1-21.84-10.86c-1.31-.86-2.35-1.58-3.05-2.1a7,7,0,0,1-1.06-.85,7.07,7.07,0,0,1,1.17.68l3.13,2c2.65,1.64,6.38,3.8,10.64,5.92s8.23,3.78,11.13,4.91l3.46,1.31A6.77,6.77,0,0,1,207.78,357.68Z" style="fill: rgb(255, 255, 255); transform-origin: 192.39px 350.025px;" id="elx0m68xhp3w" class="animable"></path></g><g id="freepik--Floor--inject-34" class="animable" style="transform-origin: 250px 467px;"><path d="M465.35,467c0,.14-96.43.26-215.34.26S34.65,467.11,34.65,467s96.4-.26,215.36-.26S465.35,466.83,465.35,467Z" style="fill: rgb(38, 50, 56); transform-origin: 250px 467px;" id="elqi8ya7xbycd" class="animable"></path></g><g id="freepik--Character--inject-34" class="animable animator-active" style="transform-origin: 97.131px 303.286px;"><path d="M83.56,436.09,81.13,455.9s19.31,9.12,19.22,12.82l-38.57-3.33,2.52-31Z" style="fill: #6B2239; transform-origin: 81.0652px 451.555px;" id="el22gl3yq2ye1" class="animable"></path><g id="el5lgjlfv1gtj" class=""><g style="opacity: 0.3; transform-origin: 81.0652px 451.555px;" class="animable" id="elbvqw2ngw8qk"><path d="M83.56,436.09,81.13,455.9s19.31,9.12,19.22,12.82l-38.57-3.33,2.52-31Z" id="elmcxxr08pg6a" class="animable" style="transform-origin: 81.0652px 451.555px;"></path></g></g><g id="eley3mpzf26vd" class=""><g style="opacity: 0.6; transform-origin: 69.596px 454.668px;" class="animable" id="elgbl2d5c25o"><path d="M69.35,453.19a1.58,1.58,0,0,0-1.25,1.7,1.52,1.52,0,0,0,1.68,1.25,1.67,1.67,0,0,0,1.31-1.81,1.58,1.58,0,0,0-1.89-1.1" style="fill: rgb(255, 255, 255); transform-origin: 69.596px 454.668px;" id="elvmymo4946e" class="animable"></path></g></g><g id="elex4bhyrkmws" class=""><g style="opacity: 0.6; transform-origin: 81.0832px 465.495px;" class="animable" id="elf2b5kgyzwzp"><path d="M61.78,465.39l.37-3.12L99,466.64s1.65.89,1.35,2.08Z" style="fill: rgb(255, 255, 255); transform-origin: 81.0832px 465.495px;" id="el4znm52f1x9l" class="animable"></path></g></g><path d="M81.77,455.75c0,.19-1,.19-2,.72s-1.54,1.27-1.71,1.18.21-1.15,1.41-1.76S81.83,455.58,81.77,455.75Z" style="fill: rgb(38, 50, 56); transform-origin: 79.8969px 456.591px;" id="el4g3phte2nir" class="animable"></path><path d="M85.67,457.78c0,.18-.81.43-1.52,1.17s-1,1.57-1.16,1.55-.21-1.1.69-2S85.68,457.6,85.67,457.78Z" style="fill: rgb(38, 50, 56); transform-origin: 84.2839px 459.093px;" id="elk99pbuehwti" class="animable"></path><path d="M87.55,462.82c-.17,0-.35-.94.22-1.93s1.49-1.32,1.55-1.16-.52.67-1,1.49S87.74,462.82,87.55,462.82Z" style="fill: rgb(38, 50, 56); transform-origin: 88.3533px 461.256px;" id="elehe1wvql32k" class="animable"></path><path d="M81.82,451.18c-.09.16-.93-.17-2-.19s-1.93.24-2,.07.78-.77,2-.73S81.93,451,81.82,451.18Z" style="fill: rgb(38, 50, 56); transform-origin: 79.8226px 450.776px;" id="elj9mho8rxv6q" class="animable"></path><path d="M82.24,447.17a3.64,3.64,0,0,1-1.93-.17,9.16,9.16,0,0,1-2-.8,7.88,7.88,0,0,1-1-.69,2.24,2.24,0,0,1-.55-.5.82.82,0,0,1,0-1,1,1,0,0,1,.86-.36,2.74,2.74,0,0,1,.72.16,7.81,7.81,0,0,1,1.17.52,7,7,0,0,1,1.68,1.32,3.36,3.36,0,0,1,1,1.67c-.1.06-.48-.57-1.33-1.33a7.69,7.69,0,0,0-1.64-1.12,6.58,6.58,0,0,0-1.08-.44c-.4-.15-.75-.18-.87,0s0,.1,0,.22a1.83,1.83,0,0,0,.4.37,8,8,0,0,0,1,.67,9.84,9.84,0,0,0,1.8.88A15,15,0,0,1,82.24,447.17Z" style="fill: rgb(38, 50, 56); transform-origin: 79.415px 445.485px;" id="elklgiw85osfn" class="animable"></path><path d="M82,447.42a3.09,3.09,0,0,1-.34-1.91,6.27,6.27,0,0,1,.44-2.09,5.88,5.88,0,0,1,.6-1.13,1.58,1.58,0,0,1,1.31-.87.88.88,0,0,1,.76.61,2.6,2.6,0,0,1,.14.72,4.68,4.68,0,0,1-.11,1.31,4.42,4.42,0,0,1-1,1.92c-.84.93-1.65,1.09-1.66,1s.64-.41,1.3-1.32a4.27,4.27,0,0,0,.83-2.88c0-.42-.15-.76-.31-.73s-.54.26-.73.57a6,6,0,0,0-.57,1,6.75,6.75,0,0,0-.54,1.89C81.94,446.68,82.08,447.4,82,447.42Z" style="fill: rgb(38, 50, 56); transform-origin: 83.273px 444.42px;" id="elgt08n25c2kd" class="animable"></path><path d="M75,436.85l-.59,19.95s20.08,7.29,20.33,11L56,467.46l-.38-30.53Z" style="fill: #6B2239; transform-origin: 75.18px 452.325px;" id="eltpjo890suno" class="animable"></path><g id="elf4cd1l6qrr" class=""><g style="opacity: 0.6; transform-origin: 62.7637px 456.636px;" class="animable" id="elj7jxs5vsmjc"><path d="M62.38,455.2A1.58,1.58,0,0,0,61.3,457a1.52,1.52,0,0,0,1.79,1.09,1.67,1.67,0,0,0,1.13-1.93,1.57,1.57,0,0,0-2-.92" style="fill: rgb(255, 255, 255); transform-origin: 62.7637px 456.636px;" id="elbjj7kwoabvq" class="animable"></path></g></g><g id="eln7leqgdhxl" class=""><g style="opacity: 0.6; transform-origin: 75.3573px 466.37px;" class="animable" id="ele2mwo54n1rr"><path d="M56,467.46l.07-2.55,37.09.92s1.73.74,1.54,2Z" style="fill: rgb(255, 255, 255); transform-origin: 75.3573px 466.37px;" id="elwyohtsg884g" class="animable"></path></g></g><path d="M75,456.6c0,.19-.95.28-1.88.89s-1.41,1.41-1.59,1.34.1-1.17,1.24-1.89S75,456.42,75,456.6Z" style="fill: rgb(38, 50, 56); transform-origin: 73.2399px 457.632px;" id="elu6pp00kqyct" class="animable"></path><path d="M79.06,458.25c0,.18-.77.51-1.41,1.31s-.81,1.65-1,1.65-.32-1.08.49-2.06S79.06,458.07,79.06,458.25Z" style="fill: rgb(38, 50, 56); transform-origin: 77.7836px 459.693px;" id="elswod6bdtv2b" class="animable"></path><path d="M81.4,463.09c-.17.05-.44-.9,0-1.94s1.36-1.45,1.44-1.3-.46.72-.84,1.58S81.59,463.07,81.4,463.09Z" style="fill: rgb(38, 50, 56); transform-origin: 82.0045px 461.456px;" id="elkjlhzwoc85l" class="animable"></path><path d="M74.62,452c-.08.17-1-.09-2,0s-1.9.43-2,.26.7-.84,2-.91S74.71,451.89,74.62,452Z" style="fill: rgb(38, 50, 56); transform-origin: 72.6193px 451.826px;" id="elblnpwwkxlk" class="animable"></path><g id="el49kauc8lp8b" class=""><g style="opacity: 0.3; transform-origin: 65.24px 442.58px;" class="animable" id="el4wickja62oa"><polygon points="74.83 440.8 74.73 444.36 55.7 444.31 55.65 441.11 74.83 440.8" id="elgbmw0argr8p" class="animable" style="transform-origin: 65.24px 442.58px;"></polygon></g></g><path d="M74.66,448a3.6,3.6,0,0,1-1.94,0,8.92,8.92,0,0,1-2-.61,9.22,9.22,0,0,1-1.12-.58,2.43,2.43,0,0,1-.59-.45.83.83,0,0,1-.09-1,1.05,1.05,0,0,1,.83-.44,2.55,2.55,0,0,1,.72.1,6.14,6.14,0,0,1,1.21.41,6.82,6.82,0,0,1,1.8,1.16c.9.82,1.21,1.53,1.15,1.56s-.53-.52-1.45-1.2a7.72,7.72,0,0,0-1.73-1,7.33,7.33,0,0,0-1.12-.33c-.41-.11-.76-.11-.86.08s0,.09,0,.21a2,2,0,0,0,.43.33,9.83,9.83,0,0,0,1,.58,11,11,0,0,0,1.88.71A13.83,13.83,0,0,1,74.66,448Z" style="fill: rgb(38, 50, 56); transform-origin: 71.7267px 446.536px;" id="elta28wcmsr67" class="animable"></path><path d="M74.42,448.28c-.07,0-.45-.64-.53-1.87a6.42,6.42,0,0,1,.25-2.12,6.56,6.56,0,0,1,.49-1.18,1.59,1.59,0,0,1,1.23-1,.9.9,0,0,1,.81.54,2.73,2.73,0,0,1,.21.7,4.44,4.44,0,0,1-.81,3.32c-.75,1-1.53,1.24-1.55,1.17s.59-.46,1.16-1.43a4.3,4.3,0,0,0,.61-1.82,4.25,4.25,0,0,0-.05-1.12c-.06-.41-.22-.75-.37-.7s-.52.31-.68.64a6.91,6.91,0,0,0-.47,1.05,6.75,6.75,0,0,0-.36,1.94C74.31,447.55,74.52,448.25,74.42,448.28Z" style="fill: rgb(38, 50, 56); transform-origin: 75.4079px 445.195px;" id="elypfcl4hgq9n" class="animable"></path><path d="M90.23,294.48s17.62,73.95,18,80.89-25,66.89-25,66.89l-18.64-3.89s2.86-88.39,3.5-90.12S64.16,303,64.16,303Z" style="fill: rgb(38, 50, 56); transform-origin: 86.1971px 368.37px;" id="elih5tm59vt5g" class="animable"></path><path d="M46.19,288.89l43.46,2L82,368.15l-5.28,74.51L54.1,443c-.88-14.42.09-44,.09-44l-1.38-12.74-4.89-44.87c-.4-1.91-1.82-11.43-3.32-19.06-.86-4.38-2.13-10.08-2.38-11.93C41.46,305,46.19,288.89,46.19,288.89Z" style="fill: rgb(38, 50, 56); transform-origin: 65.8937px 365.945px;" id="elpt0wqfnl7vq" class="animable"></path><path d="M86.78,308.66a1.88,1.88,0,0,0,0,.35v1c0,.92,0,2.23.07,3.91s.09,3.77.12,6.18.09,5.16.09,8.2c0,6.07,0,13.29-.17,21.32s-.57,16.84-1.2,26.08-1.51,18-2.46,26c-.51,4-1,7.77-1.52,11.29-.26,1.77-.49,3.47-.76,5.11l-.78,4.7c-.47,3-1,5.69-1.43,8.06s-.83,4.41-1.18,6.08l-.77,3.83c-.08.42-.14.75-.18,1a1.72,1.72,0,0,0,0,.34,3.06,3.06,0,0,0,.09-.33c.06-.25.13-.57.23-1,.2-.9.49-2.18.85-3.82s.81-3.69,1.25-6.06,1-5.06,1.5-8.06c.26-1.49.53-3.06.81-4.7s.51-3.34.79-5.1c.56-3.53,1-7.32,1.56-11.3,1-8,1.84-16.77,2.49-26s1-18.08,1.17-26.1.17-15.27.08-21.34c0-3-.11-5.78-.16-8.19s-.12-4.49-.19-6.19-.13-3-.16-3.91c0-.42,0-.76-.06-1A1.6,1.6,0,0,0,86.78,308.66Z" style="fill: rgb(69, 90, 100); transform-origin: 82.0457px 375.385px;" id="el5dzlz2f6o8e" class="animable"></path><path d="M37.16,162.71a28.49,28.49,0,0,0,8.7,21.72l4.29-11.72" style="fill: rgb(38, 50, 56); transform-origin: 43.6423px 173.57px;" id="el03s6fy2xsaq" class="animable"></path><path d="M68.28,139.84a17.25,17.25,0,0,0-11.59-1.62,36.47,36.47,0,0,0-11.08,4.33,18,18,0,0,0-5.32,4c-2.6,3.14-5.21,8.34-5.53,12.41-.26,3.28.85,11.55,2.18,14.56,1.23,2.77,7.16,5,10.1,5.7l27.65-31A13.7,13.7,0,0,0,68.28,139.84Z" style="fill: rgb(38, 50, 56); transform-origin: 54.706px 158.536px;" id="elzdspbh1usks" class="animable"></path><path d="M72.87,144.17l-6.47-1.28c3.39,8.51,4,27.84,5.85,36.81,2.45-3.43,8.2-13.89,8-18.1S80.59,143.6,72.87,144.17Z" style="fill: rgb(38, 50, 56); transform-origin: 73.3275px 161.295px;" id="elbs3kulrd0qq" class="animable"></path><path d="M76.32,158c-.31-6.49-4.47-14.51-10.94-13.94l-15,3.53a11.08,11.08,0,0,0-8.53,10.05c0,.24,0-.06,0,.13l2.6,38.74L55.21,219h0l10.33-23.15c.07-3.15.12-5.66.12-5.65s8.3-1.23,10.19-12C76.8,172.81,76.65,165.21,76.32,158Z" style="fill: rgb(255, 190, 157); transform-origin: 59.2114px 181.516px;" id="elgl07mt8lpf" class="animable"></path><path d="M73.57,165.62A1.4,1.4,0,0,1,72.21,167a1.34,1.34,0,0,1-1.41-1.28,1.39,1.39,0,0,1,1.36-1.37A1.32,1.32,0,0,1,73.57,165.62Z" style="fill: rgb(38, 50, 56); transform-origin: 72.185px 165.674px;" id="elh43tgcx9oze" class="animable"></path><path d="M74.61,162.21c-.17.17-1.21-.62-2.7-.64s-2.59.71-2.75.52.1-.4.58-.74a3.79,3.79,0,0,1,2.21-.64,3.65,3.65,0,0,1,2.15.73C74.55,161.8,74.7,162.13,74.61,162.21Z" style="fill: rgb(38, 50, 56); transform-origin: 71.8739px 161.471px;" id="el5ig8bcha9lr" class="animable"></path><path d="M60.62,165.39a1.39,1.39,0,0,1-1.36,1.37,1.33,1.33,0,0,1-1.41-1.27,1.4,1.4,0,0,1,1.36-1.38A1.34,1.34,0,0,1,60.62,165.39Z" style="fill: rgb(38, 50, 56); transform-origin: 59.235px 165.435px;" id="elg3f4znqs98a" class="animable"></path><path d="M60.46,161.94c-.18.18-1.22-.62-2.71-.64s-2.59.71-2.75.52.1-.4.58-.74a3.79,3.79,0,0,1,2.21-.64,3.63,3.63,0,0,1,2.15.73C60.39,161.53,60.54,161.86,60.46,161.94Z" style="fill: rgb(38, 50, 56); transform-origin: 57.7167px 161.203px;" id="el018ovqai3tl7" class="animable"></path><path d="M64.9,173.74a9.53,9.53,0,0,1,2.43-.4c.38,0,.74-.1.81-.36a1.94,1.94,0,0,0-.24-1.13c-.34-.93-.7-1.9-1.08-2.92-1.49-4.15-2.57-7.57-2.4-7.63s1.52,3.26,3,7.42l1,2.93a2.16,2.16,0,0,1,.17,1.5.94.94,0,0,1-.63.54,2.73,2.73,0,0,1-.65.08A10,10,0,0,1,64.9,173.74Z" style="fill: rgb(38, 50, 56); transform-origin: 66.5282px 167.564px;" id="elt0s64vb4ba" class="animable"></path><path d="M51.4,186.07s3.38,7.48,14.21,6.65l0-2.54A27.18,27.18,0,0,1,51.4,186.07Z" style="fill: rgb(235, 153, 110); transform-origin: 58.505px 189.427px;" id="elfhg3rfbdfv5" class="animable"></path><path d="M60.09,156.55c-.15.4-1.64.18-3.39.36s-3.18.64-3.4.27c-.1-.18.15-.55.73-.94a6,6,0,0,1,5.17-.48C59.84,156,60.16,156.35,60.09,156.55Z" style="fill: rgb(38, 50, 56); transform-origin: 56.689px 156.353px;" id="elju4si5ci4pj" class="animable"></path><path d="M74.21,157.64c-.26.33-1.29,0-2.52-.07s-2.28.19-2.52-.17c-.1-.18.07-.51.53-.82a3.43,3.43,0,0,1,2.06-.53,3.49,3.49,0,0,1,2,.72C74.19,157.12,74.33,157.47,74.21,157.64Z" style="fill: rgb(38, 50, 56); transform-origin: 71.6968px 156.914px;" id="elu24w8caiwuo" class="animable"></path><path d="M73.57,148.09a4.75,4.75,0,0,0-4.15-2.77,9.24,9.24,0,0,0-5,1.35c-6.5,3.6-10,12.52-16.41,16.25-1.58.91-3.6,0-5,1.24s-2.25,3.21-1.55,4.9a15.3,15.3,0,0,1-2.13-3.77,5.14,5.14,0,0,1,.25-4.21c.57-.94,1.56-1.65,1.84-2.71s-.1-1.93,0-2.89a6.3,6.3,0,0,1,1-2.74A28.17,28.17,0,0,1,53,142.07a18.3,18.3,0,0,1,9.53-2.27,13.94,13.94,0,0,1,8.95,3.75c1.4,1.35,2.87,2.75,2.1,4.54" style="fill: rgb(38, 50, 56); transform-origin: 56.3932px 154.424px;" id="ely9oefor8jpe" class="animable"></path><path d="M43.18,165.5c-.11-.31-5.7-2.45-5.89,3.54-.18,5.81,5.71,4.78,5.72,4.61S43.18,165.5,43.18,165.5Z" style="fill: rgb(255, 190, 157); transform-origin: 40.233px 169.352px;" id="elv90wh3nzyt9" class="animable"></path><path d="M41.28,171.4s-.1.06-.27.14a1,1,0,0,1-.76,0,2.5,2.5,0,0,1-1.1-2.28,3.32,3.32,0,0,1,.33-1.44,1.18,1.18,0,0,1,.78-.76.52.52,0,0,1,.59.3c.07.16,0,.28.06.29s.13-.1.09-.34a.61.61,0,0,0-.22-.37.73.73,0,0,0-.55-.16,1.42,1.42,0,0,0-1.09.87,3.45,3.45,0,0,0-.39,1.61,2.62,2.62,0,0,0,1.4,2.55,1.09,1.09,0,0,0,.93-.12C41.27,171.54,41.3,171.41,41.28,171.4Z" style="fill: rgb(235, 153, 110); transform-origin: 40.0128px 169.319px;" id="elmbhdtan8m8b" class="animable"></path><path d="M40.92,162.47l.36-.19c.22-.14.57-.32,1-.6a20.74,20.74,0,0,0,3.19-2.8A57.78,57.78,0,0,0,49.4,154a44.93,44.93,0,0,1,4.91-5.89,18.37,18.37,0,0,1,3.14-2.39,15.29,15.29,0,0,1,3.38-1.46,16.86,16.86,0,0,1,6.18-.64,16.07,16.07,0,0,1,4.11.89,10.45,10.45,0,0,1,1.07.42,1.8,1.8,0,0,0,.38.14l-.36-.19a9.94,9.94,0,0,0-1-.47,15.1,15.1,0,0,0-4.14-1,16.38,16.38,0,0,0-6.26.59,15.64,15.64,0,0,0-3.44,1.46,18.57,18.57,0,0,0-3.19,2.43,44.34,44.34,0,0,0-4.93,5.93,60.92,60.92,0,0,1-3.88,4.94,21.57,21.57,0,0,1-3.11,2.84c-.41.29-.74.49-1,.64Z" style="fill: rgb(69, 90, 100); transform-origin: 56.745px 152.9px;" id="elqk5c8599lj" class="animable"></path><path d="M42.36,164.14a8.86,8.86,0,0,0,.48,4.69c.7,1.43,2.54,2.42,3.93,1.66,1.14-.63,1.51-2.06,1.72-3.34.63-3.7.95-7.44,1.6-11.13Z" style="fill: rgb(38, 50, 56); transform-origin: 46.1631px 163.386px;" id="eluzj9lw1girt" class="animable"></path><path d="M61.18,176.5a2.88,2.88,0,0,0-.5,2.61A2.93,2.93,0,0,0,62.53,181a1.7,1.7,0,0,0,1.09,0,2.37,2.37,0,0,0,1.18-1.48l.63-1.49a.71.71,0,0,0,.07-.53c-.08-.17-.3-.24-.49-.29l-3.71-1" style="fill: rgb(235, 153, 110); transform-origin: 63.0412px 178.65px;" id="elj21ssrt1808" class="animable"></path><path d="M63.54,180.88a3.33,3.33,0,0,1-1.69-.24,2.72,2.72,0,0,1-1.47-1.24,2,2,0,0,1-.2-1.16,3.2,3.2,0,0,1,.32-1.19,3.15,3.15,0,0,1,.72-1l.1-.09.12.05c2.46.92,4.38,1.4,4.36,1.5a15.16,15.16,0,0,1-4.51-1.09l.22,0a2.83,2.83,0,0,0-.61.83,2.42,2.42,0,0,0-.15,2A2.47,2.47,0,0,0,62,180.34C62.89,180.74,63.56,180.8,63.54,180.88Z" style="fill: rgb(38, 50, 56); transform-origin: 62.9819px 178.432px;" id="elffoz45ualz4" class="animable"></path><path d="M72.19,145.29s-.52-.11-1.45-.15a9.74,9.74,0,0,0-3.86.63A12.69,12.69,0,0,0,64.44,147a27.49,27.49,0,0,0-2.52,1.86A29.53,29.53,0,0,0,57,154c-.76,1-1.44,2.08-2.16,3.05a14.43,14.43,0,0,1-2.39,2.58,26.18,26.18,0,0,1-5,3.2c-1.51.76-2.76,1.28-3.63,1.65l-1,.4a1.48,1.48,0,0,1-.36.12l.33-.18,1-.46c.85-.4,2.09-1,3.57-1.74a26.36,26.36,0,0,0,4.89-3.22,14.58,14.58,0,0,0,2.32-2.54c.71-1,1.39-2,2.16-3.06a29.76,29.76,0,0,1,5-5.2,26.47,26.47,0,0,1,2.57-1.85,13,13,0,0,1,2.5-1.18,9.66,9.66,0,0,1,4-.54,6.85,6.85,0,0,1,1.07.17A1.89,1.89,0,0,1,72.19,145.29Z" style="fill: rgb(69, 90, 100); transform-origin: 57.325px 155.001px;" id="elv5fwhivwp9" class="animable"></path><path d="M42.26,160.54a2.14,2.14,0,0,1-.52.34l-1.49.84-.5.27a1.46,1.46,0,0,1-.64.2.57.57,0,0,1-.39-.1.47.47,0,0,1-.21-.39,1.29,1.29,0,0,1,.29-.73l1.76-2.7.22.22a6.14,6.14,0,0,1-4,1.1,2.06,2.06,0,0,1-.53-.1.69.69,0,0,1-.44-.4.63.63,0,0,1,.11-.59,2.36,2.36,0,0,1,.34-.36,12.17,12.17,0,0,0,2-2.46A20.93,20.93,0,0,0,39.63,153a4.07,4.07,0,0,1-.2.78,11.07,11.07,0,0,1-.92,2,11.27,11.27,0,0,1-2,2.56c-.22.2-.44.44-.36.62s.4.28.7.29a5.84,5.84,0,0,0,2-.2,6,6,0,0,0,1.79-.84l.7-.5-.48.71L39,161.13a1.12,1.12,0,0,0-.26.56c0,.17.14.27.33.25a2.88,2.88,0,0,0,1-.41l1.54-.75A3.29,3.29,0,0,1,42.26,160.54Z" style="fill: rgb(69, 90, 100); transform-origin: 39.0198px 157.597px;" id="elurwixqpyoul" class="animable"></path><path d="M150.62,227.47l-.89.8a.54.54,0,0,1-.34.18c-.17,0-.29-.15-.37-.3a2.16,2.16,0,0,1-.1-1.69,3.53,3.53,0,0,1,1-1.41,1,1,0,0,1,.7-.35,1.07,1.07,0,0,1,.67.38,9.23,9.23,0,0,1,.73.8.56.56,0,0,1,.19.46.6.6,0,0,1-.23.32c-.39.33-1,.48-1.34.81" style="fill: rgb(235, 153, 110); transform-origin: 150.503px 226.575px;" id="elf4dr822p2x9" class="animable"></path><path d="M143.54,212.29c1.29-.08,7.12-.83,7.12-.83l8.88,1.9s-.33,2.55-2.16,2.33-3.85-.25-3.85-.25l-3.19.48s4.5,2.87,4.56,3.46a2.59,2.59,0,0,1-.28,1.24,4.6,4.6,0,0,1,.21,3.23l0,4.17-4.13,3a3.36,3.36,0,0,1-.39-2.24c.26-1.18,1.85-1.9,1.85-1.9l-1-1.72-1.48-.48s-9.58,2.94-11.83,2.84l-1.92,1.77-7.05-9S142.24,212.38,143.54,212.29Z" style="fill: rgb(255, 190, 157); transform-origin: 144.21px 221.24px;" id="ell13siegut3" class="animable"></path><path d="M149.59,220.91c0,.11,1.2.59,2.6,1.4s2.43,1.65,2.51,1.56a9,9,0,0,0-5.11-3Z" style="fill: rgb(235, 153, 110); transform-origin: 152.145px 222.373px;" id="elz11kwqe0ul9" class="animable"></path><path d="M148.75,217.66a25.15,25.15,0,0,0,2.83,1.52,29.57,29.57,0,0,0,2.82,1.55,8.4,8.4,0,0,0-2.62-1.91A8.65,8.65,0,0,0,148.75,217.66Z" style="fill: rgb(235, 153, 110); transform-origin: 151.575px 219.195px;" id="el8wrxjwa2qrq" class="animable"></path><path d="M145.63,213a17.31,17.31,0,0,0,2.33,1.68,7.73,7.73,0,0,0,2.55,1.36,16.39,16.39,0,0,0-2.32-1.71A7.39,7.39,0,0,0,145.63,213Z" style="fill: rgb(235, 153, 110); transform-origin: 148.07px 214.52px;" id="elhe1zvdd1kut" class="animable"></path><path d="M36.52,220.84l9.29,50.85s-8.22,20-7.17,29.31c.61,5.42,3.69,17.25,3.69,17.25L94.07,302a5.25,5.25,0,0,0,3.48-5.73c-2-13.45-8.11-54.42-10.66-63.62C82.56,217,68.62,198.73,68.62,198.73h0l-.18-5.28-24.8-.66-1.16,5.87S33.81,208.1,36.52,220.84Z" style="fill: rgb(69, 90, 100); transform-origin: 66.8009px 255.52px;" id="elehhypuj8xej" class="animable"></path><path d="M55,203.91c-3.1-.94-3.55.26-8.62,2.43s-6.26,14.3-6.26,14.3L47,233.11l36.78,22.14s7.47,5.52,19.47-2.4c4.41-2.91,34.23-21.83,34.23-21.83l-8.33-13.12-35.08,15Z" style="fill: rgb(69, 90, 100); transform-origin: 88.8px 230.354px;" id="elsmo6j37uzpl" class="animable"></path><g id="elq9s43bk86ao" class=""><g style="opacity: 0.3; transform-origin: 56.8736px 238.465px;" class="animable" id="elzpmuzu6ehwq"><path d="M72.19,248.24,41.55,227.48a2.49,2.49,0,0,0-1.27-.55,1.69,1.69,0,0,0-1.53,1.78,4,4,0,0,0,1.07,2.34c2.83,3.55,7.08,5.61,11.19,7.56C58,241.93,68,246.7,75,250Z" id="el0cjkminn2wk" class="animable" style="transform-origin: 56.8736px 238.465px;"></path></g></g><path d="M73.34,218.44a1.59,1.59,0,0,1,0,.52,8.53,8.53,0,0,1-.28,1.44A10.42,10.42,0,0,1,70.19,225a10.91,10.91,0,0,1-7.41,2.89,11.8,11.8,0,0,1-4.7-.91,7.77,7.77,0,0,1-4-3.26,3.42,3.42,0,0,1-.25-2.69,2.8,2.8,0,0,1,1.85-1.87,3.13,3.13,0,0,1,2.51.38,3.7,3.7,0,0,1,1.59,1.84,5.56,5.56,0,0,1-.5,4.31,11.78,11.78,0,0,1-2.25,3,12.8,12.8,0,0,1-4.59,2.87,11.08,11.08,0,0,1-1.41.39,1.54,1.54,0,0,1-.51.07c0-.05.68-.19,1.85-.65a13.42,13.42,0,0,0,4.4-2.94,11.5,11.5,0,0,0,2.12-2.95,5.19,5.19,0,0,0,.44-4,3.1,3.1,0,0,0-3.5-1.91,2.32,2.32,0,0,0-1.51,1.55,3,3,0,0,0,.22,2.3,7.42,7.42,0,0,0,3.71,3,11.46,11.46,0,0,0,4.5.89,10.56,10.56,0,0,0,10.08-7.06C73.25,219.15,73.29,218.43,73.34,218.44Z" style="fill: rgb(255, 255, 255); transform-origin: 61.9407px 225.23px;" id="elzn5q31kytsk" class="animable"></path><path d="M87.67,257.43a4.12,4.12,0,0,1-.54-1,9.82,9.82,0,0,1-.51-1.2,17.23,17.23,0,0,1-.56-1.64,23.1,23.1,0,0,1-.85-4.43,26.47,26.47,0,0,1,.09-5.53,27.25,27.25,0,0,1,1.3-5.37,23.63,23.63,0,0,1,2-4.08,14.4,14.4,0,0,1,1-1.44,8.66,8.66,0,0,1,.8-1,4.6,4.6,0,0,1,.76-.81c.08.07-1,1.27-2.19,3.48a26.05,26.05,0,0,0-1.82,4.05,29,29,0,0,0-1.24,5.28,29.35,29.35,0,0,0-.13,5.42,26,26,0,0,0,.74,4.37C87.06,256,87.76,257.39,87.67,257.43Z" style="fill: rgb(255, 255, 255); transform-origin: 88.1354px 244.18px;" id="elz1prov4g3n" class="animable"></path><path d="M117.42,244.23a1.28,1.28,0,0,1-.33-.15,8.09,8.09,0,0,1-.88-.57,10.42,10.42,0,0,1-2.59-2.87,11,11,0,0,1-1.6-5.5,8.25,8.25,0,0,1,.61-3.37,5.28,5.28,0,0,1,2.43-2.79,3.33,3.33,0,0,1,1.91-.38,1.87,1.87,0,0,1,1.56,1.18,1.58,1.58,0,0,1-.61,1.79,3.61,3.61,0,0,1-1.6.67,6.86,6.86,0,0,1-5.54-1.26,6.73,6.73,0,0,1-2.22-3.16,7,7,0,0,1-.24-1q0-.36,0-.36s.1.49.43,1.32a6.77,6.77,0,0,0,2.25,2.93,6.53,6.53,0,0,0,5.22,1.09,3.21,3.21,0,0,0,1.39-.59,1.07,1.07,0,0,0,.44-1.23,1.38,1.38,0,0,0-1.14-.84,2.93,2.93,0,0,0-1.62.33A4.84,4.84,0,0,0,113.1,232a7.9,7.9,0,0,0-.6,3.17,10.85,10.85,0,0,0,1.44,5.31A13,13,0,0,0,117.42,244.23Z" style="fill: rgb(255, 255, 255); transform-origin: 113.463px 235.345px;" id="elfyvdlj7685o" class="animable"></path><path d="M52.05,261.53a10.82,10.82,0,0,1-4.83-.65,10.84,10.84,0,0,1-4.31-2.27c.08-.14,1.94,1,4.47,1.78S52.06,261.37,52.05,261.53Z" style="fill: rgb(255, 255, 255); transform-origin: 47.48px 260.088px;" id="elxtcr4vswy8" class="animable"></path><path d="M92.06,267.16s-.78-.62-2.27-1.57a22.14,22.14,0,0,0-6.9-2.79,21.39,21.39,0,0,0-10.93.38A13.74,13.74,0,0,0,69,264.39a5.75,5.75,0,0,0-2.27,2.24,3.66,3.66,0,0,0-.25,3.14,3.39,3.39,0,0,0,2.59,1.88,3.76,3.76,0,0,0,3.14-.88,5.25,5.25,0,0,0,1.68-2.8,7.85,7.85,0,0,0-1.42-6.05,13.61,13.61,0,0,0-9-5.77,13.91,13.91,0,0,0-7.32.81,27.5,27.5,0,0,0-2.47,1.21,3.55,3.55,0,0,1,.58-.43,12.93,12.93,0,0,1,1.81-1,13.71,13.71,0,0,1,16.81,4.88,8.3,8.3,0,0,1,1.51,6.43,5.79,5.79,0,0,1-1.84,3.09,4.3,4.3,0,0,1-3.56,1A3.93,3.93,0,0,1,66,270a4.17,4.17,0,0,1,.27-3.59A6.31,6.31,0,0,1,68.78,264a13.84,13.84,0,0,1,3-1.25A21.48,21.48,0,0,1,83,262.44a21.26,21.26,0,0,1,6.93,3,17.46,17.46,0,0,1,1.63,1.25A3.48,3.48,0,0,1,92.06,267.16Z" style="fill: rgb(255, 255, 255); transform-origin: 72.87px 263.904px;" id="elednquwzre" class="animable"></path><path d="M97.21,296.16a3.14,3.14,0,0,1-.43-.48c-.27-.31-.67-.78-1.22-1.35a19.46,19.46,0,0,0-5.29-4,14.56,14.56,0,0,0-4.34-1.41,17.33,17.33,0,0,0-5.23,0A38.67,38.67,0,0,0,69.33,293c-3.86,1.94-7.57,3.87-11.24,4.85a20.35,20.35,0,0,1-10,.36,19.58,19.58,0,0,1-6.25-2.51,14.61,14.61,0,0,1-1.51-1,3.14,3.14,0,0,1-.48-.43s.72.51,2.09,1.3a21,21,0,0,0,6.23,2.32,20.23,20.23,0,0,0,9.76-.46c3.6-1,7.26-2.91,11.14-4.85a38.27,38.27,0,0,1,11.53-4.1,17.53,17.53,0,0,1,5.37,0,14.42,14.42,0,0,1,4.44,1.5,18.8,18.8,0,0,1,5.27,4.2,17.38,17.38,0,0,1,1.15,1.43A3.51,3.51,0,0,1,97.21,296.16Z" style="fill: rgb(255, 255, 255); transform-origin: 68.53px 293.47px;" id="elvrwhrnxztqo" class="animable"></path><path d="M51.26,234.4A5.21,5.21,0,0,1,50,235.84a19,19,0,0,1-7.89,4.49,5.63,5.63,0,0,1-1.87.33,51.51,51.51,0,0,0,5.83-2.55A49.17,49.17,0,0,0,51.26,234.4Z" style="fill: rgb(255, 255, 255); transform-origin: 45.75px 237.53px;" id="eld38t034w5b" class="animable"></path><path d="M71.3,202.15c0,.08-.89-.23-2.33-.51a18.2,18.2,0,0,0-11.14,1.3c-1.34.61-2.1,1.11-2.15,1a6.84,6.84,0,0,1,2-1.37,16.07,16.07,0,0,1,5.58-1.71,15.81,15.81,0,0,1,5.81.38A6.78,6.78,0,0,1,71.3,202.15Z" style="fill: rgb(255, 255, 255); transform-origin: 63.49px 202.351px;" id="elt4sujwx7u4" class="animable"></path><path d="M56.68,193.54a6.09,6.09,0,0,1-1.74,1A19.74,19.74,0,0,1,50.28,196a18.89,18.89,0,0,1-4.87.25,5.7,5.7,0,0,1-2-.35,44.49,44.49,0,0,0,6.76-.41A44.85,44.85,0,0,0,56.68,193.54Z" style="fill: rgb(255, 255, 255); transform-origin: 50.045px 194.924px;" id="elu14xdu9wmhm" class="animable"></path><path d="M60.18,207.91l.16.14.47.38,1.86,1.42L69.54,215l22.77,16.87L93.78,233l.1.07L94,233l25-10.61,7.48-3.23,2-.9L129,218l.17-.09s-.07,0-.19,0l-.54.21-2.05.82-7.54,3.11-25,10.49.21,0-1.47-1.08L69.72,214.75l-6.95-5-1.91-1.36-.5-.34C60.25,207.94,60.19,207.9,60.18,207.91Z" style="fill: rgb(38, 50, 56); transform-origin: 94.675px 220.489px;" id="elrtb07m65a9b" class="animable"></path><path d="M44,229.25a4.46,4.46,0,0,0,.54.43c.36.28.9.67,1.59,1.17,1.4,1,3.43,2.43,6,4.16,5.07,3.47,12.1,8.21,20,13.27,4,2.51,7.73,4.9,11.3,6.85.44.25.89.49,1.34.69l.68.32.69.26a13.87,13.87,0,0,0,2.75.65,15.91,15.91,0,0,0,5-.13,18.5,18.5,0,0,0,4-1.18c.57-.21,1.08-.49,1.56-.7s.88-.47,1.25-.69c.74-.44,1.3-.8,1.67-1.07a4.74,4.74,0,0,0,.55-.42,4.64,4.64,0,0,0-.6.34c-.38.25-1,.59-1.7,1l-1.27.65c-.48.2-1,.46-1.55.66a19.19,19.19,0,0,1-4,1.1,14.8,14.8,0,0,1-10.27-1.84c-3.53-2-7.3-4.35-11.25-6.87-7.88-5.05-14.93-9.74-20-13.15l-6-4-1.64-1.1A4.15,4.15,0,0,0,44,229.25Z" style="fill: rgb(38, 50, 56); transform-origin: 73.46px 243.219px;" id="el2b2w1h27ulw" class="animable"></path><path d="M40.85,205.72c0,.07.81-.6,2.25-1.33a13,13,0,0,1,12,0c1.43.74,2.19,1.41,2.24,1.35a2.48,2.48,0,0,0-.5-.51,11.34,11.34,0,0,0-1.59-1.12,12.41,12.41,0,0,0-12.33,0,10.3,10.3,0,0,0-1.6,1.11C41,205.51,40.83,205.7,40.85,205.72Z" style="fill: rgb(38, 50, 56); transform-origin: 49.0942px 204.107px;" id="elte4lwdlj2zb" class="animable"></path><path d="M43.05,198.55a5.09,5.09,0,0,0,1,.3c.63.17,1.54.37,2.69.58a52.77,52.77,0,0,0,18.08.12c1.15-.2,2.07-.39,2.7-.55a4,4,0,0,0,1-.28,4.37,4.37,0,0,0-1,.11c-.64.11-1.56.26-2.71.41a65.63,65.63,0,0,1-9,.58,64.55,64.55,0,0,1-9-.7c-1.14-.17-2.07-.32-2.71-.44A4.5,4.5,0,0,0,43.05,198.55Z" style="fill: rgb(38, 50, 56); transform-origin: 55.785px 199.411px;" id="elola74pqyf2i" class="animable"></path><path d="M54.81,255.24a21.67,21.67,0,0,0-1.28,2.49c-.77,1.55-1.84,3.68-3.09,6S48,268.1,47.1,269.59A21.43,21.43,0,0,0,45.71,272a14.57,14.57,0,0,0,1.65-2.27c1-1.44,2.21-3.49,3.47-5.81s2.29-4.49,3-6.08A14.65,14.65,0,0,0,54.81,255.24Z" style="fill: rgb(38, 50, 56); transform-origin: 50.26px 263.62px;" id="elo0bus4ph6xk" class="animable"></path><path d="M87.47,304.09a18.4,18.4,0,0,1-1.59-3.8,18,18,0,0,1-.25-4.12,7.82,7.82,0,0,0,1.84,7.92Z" style="fill: rgb(38, 50, 56); transform-origin: 86.3534px 300.13px;" id="eleav6o5p696" class="animable"></path><path d="M72,300.12a2.8,2.8,0,0,0-.28,1.29,8,8,0,0,0,2.18,5.88c.58.58,1,.84,1,.8a13.77,13.77,0,0,1-2.32-3.67A13.45,13.45,0,0,1,72,300.12Z" style="fill: rgb(38, 50, 56); transform-origin: 73.3055px 304.107px;" id="elilqvaioejf" class="animable"></path><path d="M56.59,303.64a11.07,11.07,0,0,0,2.83,9.26,17.94,17.94,0,0,1-2.83-9.26Z" style="fill: rgb(38, 50, 56); transform-origin: 57.9377px 308.27px;" id="el1g79yttpsz2" class="animable"></path><path d="M46,306.51a4.09,4.09,0,0,0-.37,1.55,13.42,13.42,0,0,0,.1,3.85,13.76,13.76,0,0,0,1.18,3.67,4.56,4.56,0,0,0,.86,1.34,28.44,28.44,0,0,1-1.6-5.08A27.54,27.54,0,0,1,46,306.51Z" style="fill: rgb(38, 50, 56); transform-origin: 46.6533px 311.715px;" id="elrmgcvoxko9n" class="animable"></path></g><defs>     <filter id="active" height="200%">         <feMorphology in="SourceAlpha" result="DILATED" operator="dilate" radius="2"></feMorphology>                <feFlood flood-color="#32DFEC" flood-opacity="1" result="PINK"></feFlood>        <feComposite in="PINK" in2="DILATED" operator="in" result="OUTLINE"></feComposite>        <feMerge>            <feMergeNode in="OUTLINE"></feMergeNode>            <feMergeNode in="SourceGraphic"></feMergeNode>        </feMerge>    </filter>    <filter id="hover" height="200%">        <feMorphology in="SourceAlpha" result="DILATED" operator="dilate" radius="2"></feMorphology>                <feFlood flood-color="#ff0000" flood-opacity="0.5" result="PINK"></feFlood>        <feComposite in="PINK" in2="DILATED" operator="in" result="OUTLINE"></feComposite>        <feMerge>            <feMergeNode in="OUTLINE"></feMergeNode>            <feMergeNode in="SourceGraphic"></feMergeNode>        </feMerge>            <feColorMatrix type="matrix" values="0   0   0   0   0                0   1   0   0   0                0   0   0   0   0                0   0   0   1   0 "></feColorMatrix>    </filter></defs></svg>